<mxfile host="app.diagrams.net" modified="2023-07-06T02:31:41.068Z" agent="Mozilla/5.0 (Windows NT 10.0; Win64; x64) AppleWebKit/537.36 (KHTML, like Gecko) Chrome/114.0.0.0 Safari/537.36" version="21.5.2" etag="t-1oom4_gEZQKsQ4lrjO" type="github">
  <diagram name="Page-1" id="iVrepE5d_fYfYaj7VkEw">
    <mxGraphModel>
      <root>
        <mxCell id="0" />
        <mxCell id="1" parent="0" />
      </root>
    </mxGraphModel>
  </diagram>
</mxfile>
